<svg height="30" viewBox="0 0 30 30" width="30" xmlns="http://www.w3.org/2000/svg" xmlns:xlink="http://www.w3.org/1999/xlink"><mask id="a" fill="#fff"><path d="m0 12.7421981v-12.7421981h15.6792899v12.7421981z" fill="#fff" fill-rule="evenodd"/></mask><g fill="none" fill-rule="evenodd"><circle cx="15" cy="15" fill="#fff" r="15"/><path d="m15.6792899 1.50837643c-.5768978.25584463-1.1968092.42881648-1.8475756.50652764.6641866-.39807612 1.1742701-1.02854015 1.4144004-1.77967154-.6215172.36865485-1.3099635.63631387-2.0426851.78061001-.5867622-.62518769-1.4228311-1.01586548-2.3479666-1.01586548-1.77663193 0-3.21689783 1.44032325-3.21689783 3.21672576 0 .25217414.0284463.49763816.08327425.73306569-2.67343587-.13414494-5.0437122-1.41480188-6.63028155-3.36096455-.27694994.47509906-.43552659 1.02767988-.43552659 1.617195 0 1.11600104.56789364 2.10061001 1.43103233 2.67750782-.52728884-.01668926-1.02332117-.16144421-1.45701251-.40237748-.00022941.01342023-.00028676.02689781-.00028676.04043274 0 1.55858186 1.10883211 2.85873827 2.58041189 3.15427008-.26995308.07346715-.55412931.11275286-.84748176.11275286-.20732534 0-.40880083-.02013034-.6052294-.05763816.40937435 1.27796142 1.59729405 2.2080292 3.00492701 2.23400938-1.10091763.8627372-2.48790407 1.37695-3.99504171 1.37695-.25962983 0-.51570386-.0151982-.76736184-.0449062 1.42363399.9126903 3.1144682 1.4451981 4.93107404 1.4451981 5.91688733 0 9.15242443-4.90159539 9.15242443-9.15248173 0-.13947862-.0031544-.27821168-.009291-.41614181.6284568-.45353494 1.1738113-1.02010949 1.6050939-1.66519813" fill="#cb0935" mask="url(#a)" transform="translate(7.142857 8.571429)"/></g></svg>