<?xml version="1.0" encoding="UTF-8"?>
<svg width="70px" height="70px" viewBox="0 0 70 70" version="1.1" xmlns="http://www.w3.org/2000/svg" xmlns:xlink="http://www.w3.org/1999/xlink">
    <!-- Generator: Sketch 63.1 (92452) - https://sketch.com -->
    <title>ARROW</title>
    <desc>Created with Sketch.</desc>
    <defs>
        <polygon id="path-1" points="1.26318709e-15 14.1333156 1.26318709e-15 0 15.9644444 0 15.9644444 14.1333156 15.9644444 28.2666311 0 28.2666311"></polygon>
    </defs>
    <g id="Page-1" stroke="none" stroke-width="1" fill="none" fill-rule="evenodd">
        <g id="20200221&gt;Desktop&gt;CordinerWealthConcept2" transform="translate(-605.000000, -790.000000)">
            <g id="ARROW" transform="translate(605.000000, 790.000000)">
                <circle id="Oval-3" fill="#B26E45" cx="35" cy="35" r="35"></circle>
                <g id="Page-1" transform="translate(35.000000, 35.500000) rotate(90.000000) translate(-35.000000, -35.500000) translate(27.000000, 21.000000)">
                    <mask id="mask-2" fill="white">
                        <use xlink:href="#path-1"></use>
                    </mask>
                    <g id="Clip-2"></g>
                    <path d="M15.6444444,13.3688533 L15.6092444,13.3340089 C15.6092444,13.3336533 15.6088889,13.3336533 15.6088889,13.3332978 L14.8622222,12.5866311 C14.8565333,12.5805867 14.8497778,12.57632 14.8440889,12.5706311 L2.56,0.319964444 C2.16888889,-0.106702222 1.49333333,-0.106702222 1.06666667,0.319964444 L0.32,1.06663111 C-0.106666667,1.45774222 -0.106666667,2.13329778 0.32,2.55996444 L11.8595556,14.0998756 L0.32,25.6710756 C-0.106666667,26.0621867 -0.106666667,26.7377422 0.32,27.1644089 L1.10222222,27.9466311 C1.49333333,28.3732978 2.16888889,28.3732978 2.59555556,27.9466311 L14.5824,15.8616533 C14.6954667,15.8090311 14.8035556,15.7389867 14.8977778,15.6444089 L15.6444444,14.8621867 C16.0711111,14.4710756 16.0711111,13.79552 15.6444444,13.3688533" id="Fill-1" fill="#FFFFFF" mask="url(#mask-2)"></path>
                </g>
            </g>
        </g>
    </g>
</svg>