<?xml version="1.0" encoding="UTF-8"?>
<svg width="184px" height="56px" viewBox="0 0 184 56" version="1.1" xmlns="http://www.w3.org/2000/svg" xmlns:xlink="http://www.w3.org/1999/xlink">
    <!-- Generator: Sketch 63.1 (92452) - https://sketch.com -->
    <title>Page 1</title>
    <desc>Created with Sketch.</desc>
    <defs>
        <polygon id="path-1" points="0 62 184 62 184 0 0 0"></polygon>
    </defs>
    <g id="Page-1" stroke="none" stroke-width="1" fill="none" fill-rule="evenodd">
        <g id="20200221&gt;Desktop&gt;CordinerWealthConcept2" transform="translate(-98.000000, -59.000000)">
            <g id="TOP-NAV">
                <g id="Page-1" transform="translate(98.000000, 54.000000)">
                    <path d="M69.0589662,28 C67.3650433,28 65.9162712,27.4195301 64.7466983,26.2763189 C63.576558,25.131964 63,23.7068103 63,22.0002859 C63,20.3103465 63.5947173,18.8851928 64.7637227,17.7419816 C65.9332955,16.5810418 67.3650433,16 69.0589662,16 C71.171688,16 73.0052105,17.0379831 74,18.6741648 L72.6028683,19.7127198 C71.748246,18.3750655 70.5605138,17.7070962 69.076558,17.7070962 C67.8893933,17.7070962 66.8940363,18.1114235 66.1080788,18.9383787 C65.3221213,19.7476052 64.9209142,20.7678597 64.9209142,22.0002859 C64.9209142,23.2315684 65.3221213,24.2523948 66.1080788,25.0793499 C66.8940363,25.8891484 67.8893933,26.2934757 69.076558,26.2934757 C70.5605138,26.2934757 71.748246,25.6249345 72.6028683,24.2872802 L74,25.3252633 C73.0222348,26.9625888 71.2068716,28 69.0589662,28 Z" id="Fill-1" fill="#626366"></path>
                    <path d="M88.9345777,25.0794891 C88.1551376,25.8886771 87.1854805,26.2929851 86.0081602,26.2929851 C84.8139568,26.2929851 83.8442996,25.8886771 83.0648595,25.0794891 C82.2859823,24.2520015 81.9044225,23.2317957 81.9044225,21.9817003 C81.9044225,20.7510484 82.2859823,19.7296988 83.0648595,18.9205109 C83.8442996,18.1113229 84.8139568,17.7070149 86.0081602,17.7070149 C87.1685973,17.7070149 88.1551376,18.1113229 88.9345777,18.9388105 C89.7140177,19.7474266 90.1124607,20.7682043 90.1124607,21.9817003 C90.1124607,23.2317957 89.7140177,24.2520015 88.9345777,25.0794891 M92,22 C92,20.3107129 91.4107771,18.8856271 90.2328941,17.7418986 C89.0735825,16.5810141 87.6531445,16 85.991277,16 C84.3119636,16 82.8915256,16.5810141 81.732214,17.7418986 C80.5712142,18.8856271 80,20.3107129 80,22 C80,23.6887152 80.5712142,25.1143729 81.732214,26.2758292 C82.8915256,27.4189859 84.3119636,28 85.991277,28 C87.6531445,28 89.0735825,27.4189859 90.2328941,26.2758292 C91.4107771,25.1143729 92,23.6887152 92,22" id="Fill-3" fill="#626366"></path>
                    <path d="M101.978415,17.7095583 L104.459468,17.7095583 C105.821864,17.7095583 106.642212,18.5090855 106.642212,19.6903531 C106.642212,20.8538927 105.821864,21.6546019 104.459468,21.6546019 L101.978415,21.6546019 L101.978415,17.7095583 Z M101.978415,23.3635692 L104.23513,23.3635692 L107.742072,28 L110,28 L106.306312,23.0545132 C107.79846,22.4907667 108.675802,21.2545428 108.675802,19.6726252 C108.675802,18.5817698 108.284121,17.6906485 107.518947,17.0181711 C106.753774,16.3451027 105.74668,16 104.496453,16 L100,16 L100,28 L101.978415,28 L101.978415,23.3635692 Z" id="Fill-5" fill="#626366"></path>
                    <path d="M115.873672,26.2727138 L115.873672,17.745605 L117.639391,17.745605 C119.000287,17.745605 120.078094,18.1273453 120.873959,18.9091446 C121.668676,19.6726252 122.075223,20.6902053 122.075223,21.9813857 C122.075223,23.2365194 121.668676,24.2718274 120.873959,25.0725366 C120.078094,25.8720638 119.000287,26.2727138 117.639391,26.2727138 L115.873672,26.2727138 Z M122.250933,26.3264884 C123.417743,25.1995863 124,23.7447186 124,21.9813857 C124,20.1997341 123.417743,18.763776 122.269308,17.6540109 C121.120873,16.5454277 119.584266,16 117.657766,16 L114,16 L114,28 L117.657766,28 C119.565891,28 121.102498,27.4362535 122.250933,26.3264884 L122.250933,26.3264884 Z" id="Fill-7" fill="#626366"></path>
                    <mask id="mask-2" fill="white">
                        <use xlink:href="#path-1"></use>
                    </mask>
                    <g id="Clip-10"></g>
                    <polygon id="Fill-9" fill="#626366" mask="url(#mask-2)" points="132 28 134 28 134 16 132 16"></polygon>
                    <polygon id="Fill-11" fill="#626366" mask="url(#mask-2)" points="151 28 151 16.1932993 149.051855 16.1932993 149.051855 24.0236382 141.680447 16 141 16 141 27.8067007 142.94934 27.8067007 142.94934 19.9592051 150.339268 28"></polygon>
                    <polygon id="Fill-12" fill="#626366" mask="url(#mask-2)" points="159.901181 22.4730389 164.332022 22.4730389 164.332022 20.8001182 159.901181 20.8001182 159.901181 17.7272862 165.784871 17.7272862 165.784871 16 158 16 158 28 166 28 166 26.2727138 159.901181 26.2727138"></polygon>
                    <path d="M178.458861,21.6546019 L175.977202,21.6546019 L175.977202,17.7095583 L178.458861,17.7095583 C179.820651,17.7095583 180.641606,18.5090855 180.641606,19.6903531 C180.641606,20.8538927 179.820651,21.6546019 178.458861,21.6546019 L178.458861,21.6546019 Z M180.305705,23.0545132 C181.79846,22.4907667 182.674589,21.2545428 182.674589,19.6726252 C182.674589,18.5817698 182.283514,17.6906485 181.517735,17.0181711 C180.752562,16.3451027 179.745468,16 178.496453,16 L174,16 L174,28 L175.977202,28 L175.977202,23.3635692 L178.235736,23.3635692 L181.742072,28 L184,28 L180.305705,23.0545132 Z" id="Fill-13" fill="#626366" mask="url(#mask-2)"></path>
                    <polygon id="Fill-14" fill="#626366" mask="url(#mask-2)" points="76.546197 44.0407949 72.8592344 36 72.1407656 36 68.4531722 44.0407949 65.2695794 36.1932993 63 36.1932993 67.987019 48 68.6865642 48 72.5091464 39.7641901 76.3323595 48 77.0117194 48 82 36.1932993 79.7487135 36.1932993"></polygon>
                    <polygon id="Fill-15" fill="#626366" mask="url(#mask-2)" points="87.9011806 42.4724479 92.3320216 42.4724479 92.3320216 40.8001182 87.9011806 40.8001182 87.9011806 37.7272862 93.784871 37.7272862 93.784871 36 86 36 86 48 94 48 94 46.2727138 87.9011806 46.2727138"></polygon>
                    <path d="M104.541706,44.4045336 L106.500579,39.5053763 L108.439203,44.4045336 L104.541706,44.4045336 Z M106.179499,36 L101,48 L103.010939,48 L103.847481,46.0325487 L109.133428,46.0325487 L109.971127,48 L112,48 L106.819922,36 L106.179499,36 Z" id="Fill-16" fill="#626366" mask="url(#mask-2)"></path>
                    <polygon id="Fill-17" fill="#626366" mask="url(#mask-2)" points="120.078063 36 118 36 118 48 126 48 126 46.2727138 120.078063 46.2727138"></polygon>
                    <polygon id="Fill-18" fill="#626366" mask="url(#mask-2)" points="128 37.7272862 132.029375 37.7272862 132.029375 48 133.952929 48 133.952929 37.7272862 138 37.7272862 138 36 128 36"></polygon>
                    <polygon id="Fill-19" fill="#626366" mask="url(#mask-2)" points="153.051739 40.7812085 146.948859 40.7812085 146.948859 36 145 36 145 48 146.948859 48 146.948859 42.5084946 153.051739 42.5084946 153.051739 48 155 48 155 36 153.051739 36"></polygon>
                    <path d="M23.6845575,7.5394135 C30.1956579,7.5394135 36.1552918,10.5130328 40.1520474,15.3417253 C40.926304,16.2770773 41.6265013,17.2812053 42.2428463,18.3472315 C43.048318,19.7402558 43.7105676,21.2370692 44.2063367,22.8214156 C44.3324211,23.2246924 44.4487127,23.6323458 44.553375,24.0468768 C44.7241399,24.7258824 45.401691,25.1341611 46.0663888,24.9597204 C46.7310866,24.7852798 47.1313742,24.092519 46.9606093,23.4135134 C46.1355516,20.1410317 44.6874163,17.1674124 42.7655461,14.6089494 L43.906427,6.44962831 C44.0037446,5.75561709 43.5318459,5.11224993 42.8524587,5.01283751 C42.1724594,4.91405033 41.5432611,5.39610677 41.4459434,6.090118 L40.6049722,12.1036315 C36.2164978,7.66821198 30.1974941,5.00033281 23.6845575,5.00033281 C18.1588745,5.00033281 13.0640823,6.91605387 9,10.1297635 L9.41252883,13.0758724 C13.2158733,9.63332664 18.214572,7.5394135 23.6845575,7.5394135" id="Fill-20" fill="#B16E44" mask="url(#mask-2)"></path>
                    <path d="M23.8562029,50.8564263 C21.3427533,50.8564263 18.8949195,50.4223112 16.5643436,49.5639334 L23.8562029,22.4665323 L31.1480622,49.5639334 C28.8174862,50.4223112 26.3696525,50.8564263 23.8562029,50.8564263 M2.4672755,29.1777666 C2.4672755,25.1611246 3.55236638,21.3981782 5.43821301,18.1697168 L9.21719691,44.9795551 C4.94730963,40.9093415 2.4672755,35.1974955 2.4672755,29.1777666 M46.0732259,33.6999525 C45.4134226,33.527538 44.7408607,33.930249 44.5713532,34.5989709 C43.5609914,38.5780512 41.439414,42.1790511 38.4952088,44.9832497 L41.6478049,22.614932 C41.1471807,21.2116011 40.4940605,19.8938618 39.7103162,18.6764923 L34.7891314,53.5904276 L25.0464005,17.3858466 C24.8999801,16.8421252 24.412722,16.4634291 23.8562029,16.4634291 C23.2996837,16.4634291 22.8124256,16.8421252 22.6660052,17.3858466 L12.9232744,53.5910434 L7.51361638,15.2109609 C7.51422394,15.2097294 7.51422394,15.2091136 7.51483149,15.2091136 L7.06524177,12.020677 C7.06463421,12.020677 7.06402666,12.0212927 7.06402666,12.0219085 L6.22560258,6.07299265 C6.12900154,5.39010809 5.5038288,4.91535246 4.82944422,5.0126435 C4.15505963,5.10993453 3.68663574,5.74355781 3.78323678,6.42705813 L4.91936216,14.4911304 C1.83602723,18.5656544 0,23.6586554 0,29.1777666 C0,36.8717634 3.6307408,44.1144038 9.73665531,48.6661465 L11.3235855,59.9260445 C11.4062128,60.5134854 11.8843576,60.9599157 12.4688242,60.9974775 C12.4943415,60.9993248 12.5204663,61 12.5459835,61 C13.0982498,61 13.5879381,60.6243232 13.7349661,60.0787545 L15.9136536,51.9820467 C18.4568733,52.894612 21.1222113,53.3570523 23.8562029,53.3570523 C26.5901944,53.3570523 29.2555324,52.8939962 31.7987522,51.9820467 L33.9774397,60.0781388 C34.1311507,60.6495697 34.6621527,61.0350392 35.2441891,60.9974775 C35.8280482,60.9599157 36.3061929,60.5134854 36.3888202,59.9260445 L37.9757504,48.667378 C42.4090697,45.3625616 45.5944736,40.60269 46.9608618,35.2215104 C47.1303693,34.5527885 46.7336368,33.8717512 46.0732259,33.6999525" id="Fill-21" fill="#B16E44" mask="url(#mask-2)"></path>
                </g>
            </g>
        </g>
    </g>
</svg>