<?xml version="1.0" encoding="UTF-8"?>
<svg width="18px" height="12px" viewBox="0 0 18 12" version="1.1" xmlns="http://www.w3.org/2000/svg" xmlns:xlink="http://www.w3.org/1999/xlink">
    <!-- Generator: Sketch 58 (84663) - https://sketch.com -->
    <title>Page 1 Copy</title>
    <desc>Created with Sketch.</desc>
    <g id="Page-1" stroke="none" stroke-width="1" fill="none" fill-rule="evenodd">
        <g id="20190913&gt;Mobile&gt;MetisHomepage4" transform="translate(-144.000000, -24.000000)" fill="#000000">
            <g id="MOBILE-NAV">
                <path d="M160.772727,34.8 L145.227273,34.8 L145.227273,25.85 L152.616477,31.6624 C152.840659,31.838 153.159341,31.838 153.383523,31.6624 L160.772727,25.85 L160.772727,34.8 Z M159.647727,25.2 L153,30.4312 L146.352273,25.2 L159.647727,25.2 Z M161.386364,24 L144.613636,24 C144.274705,24 144,24.2686 144,24.6 L144,35.4 C144,35.7312 144.274705,36 144.613636,36 L161.386364,36 C161.725295,36 162,35.7312 162,35.4 L162,24.6 C162,24.2686 161.725295,24 161.386364,24 L161.386364,24 Z" id="Page-1-Copy"></path>
            </g>
        </g>
    </g>
</svg>