<?xml version="1.0" encoding="UTF-8"?>
<svg width="30px" height="30px" viewBox="0 0 30 30" version="1.1" xmlns="http://www.w3.org/2000/svg" xmlns:xlink="http://www.w3.org/1999/xlink">
    <!-- Generator: Sketch 58 (84663) - https://sketch.com -->
    <title>Group 23</title>
    <desc>Created with Sketch.</desc>
    <defs>
        <polygon id="path-1" points="5.41365894e-16 6.05713524 5.41365894e-16 0 6.84190476 0 6.84190476 6.05713524 6.84190476 12.1142705 0 12.1142705"></polygon>
    </defs>
    <g id="Page-1" stroke="none" stroke-width="1" fill="none" fill-rule="evenodd">
        <g id="20190830Metis&gt;Desktop&gt;PageCopyVideoBoxes5" transform="translate(-759.000000, -1367.000000)">
            <g id="FILTER-BUTTON" transform="translate(466.000000, 1352.000000)">
                <g id="Group-23" transform="translate(293.000000, 15.000000)">
                    <circle id="Oval-3-Copy" fill="#FFFFFF" cx="15" cy="15" r="15"></circle>
                    <g id="Page-1-Copy" transform="translate(14.714286, 15.285714) rotate(90.000000) translate(-14.714286, -15.285714) translate(11.214286, 8.785714)">
                        <mask id="mask-2" fill="white">
                            <use xlink:href="#path-1"></use>
                        </mask>
                        <g id="Clip-2"></g>
                        <path d="M6.7047619,5.72950857 L6.68967619,5.71457524 C6.68967619,5.71442286 6.68952381,5.71442286 6.68952381,5.71427048 L6.36952381,5.39427048 C6.36708571,5.39168 6.36419048,5.38985143 6.36175238,5.38741333 L1.09714286,0.137127619 C0.92952381,-0.0457295238 0.64,-0.0457295238 0.457142857,0.137127619 L0.137142857,0.457127619 C-0.0457142857,0.624746667 -0.0457142857,0.914270476 0.137142857,1.09712762 L5.08266667,6.04280381 L0.137142857,11.0018895 C-0.0457142857,11.1695086 -0.0457142857,11.4590324 0.137142857,11.6418895 L0.472380952,11.9771276 C0.64,12.1599848 0.92952381,12.1599848 1.11238095,11.9771276 L6.2496,6.79785143 C6.29805714,6.77529905 6.34438095,6.74528 6.3847619,6.70474667 L6.7047619,6.36950857 C6.88761905,6.20188952 6.88761905,5.91236571 6.7047619,5.72950857" id="Fill-1" fill="#002E5C" mask="url(#mask-2)"></path>
                    </g>
                </g>
            </g>
        </g>
    </g>
</svg>