<?xml version="1.0" encoding="UTF-8"?>
<svg width="16px" height="16px" viewBox="0 0 16 16" version="1.1" xmlns="http://www.w3.org/2000/svg" xmlns:xlink="http://www.w3.org/1999/xlink">
    <!-- Generator: Sketch 58 (84663) - https://sketch.com -->
    <title>Fill 1 Copy</title>
    <desc>Created with Sketch.</desc>
    <g id="Page-1" stroke="none" stroke-width="1" fill="none" fill-rule="evenodd">
        <g id="20190913&gt;Mobile&gt;MetisHomepage4" transform="translate(-213.000000, -22.000000)" fill="#000000">
            <g id="MOBILE-NAV">
                <path d="M218.019815,27.5249096 C218.769316,28.8748876 219.46885,29.7748729 220.368251,30.7248573 C221.267651,31.5748434 222.167052,32.274832 223.516153,32.9748205 L224.415554,32.0248361 C224.865255,31.5748434 225.614755,31.5748434 226.064456,32.0248361 L228.662725,34.6247935 C229.112425,35.1247854 229.112425,35.9247723 228.662725,36.4247641 L227.813291,37.2747502 C223.765987,41.324684 209.675374,27.2749137 213.722678,23.22498 L214.522145,22.3749939 C215.021812,21.875002 215.871247,21.875002 216.370914,22.3749939 L218.969183,24.9749513 C219.418883,25.424944 219.418883,26.1749317 218.969183,26.6249244 L218.019815,27.5249096 Z" id="Fill-1-Copy"></path>
            </g>
        </g>
    </g>
</svg>