<?xml version="1.0" encoding="UTF-8"?>
<svg width="30px" height="30px" viewBox="0 0 30 30" version="1.1" xmlns="http://www.w3.org/2000/svg" xmlns:xlink="http://www.w3.org/1999/xlink">
    <!-- Generator: Sketch 58 (84663) - https://sketch.com -->
    <title>icon-instagram</title>
    <desc>Created with Sketch.</desc>
    <g id="Page-1" stroke="none" stroke-width="1" fill="none" fill-rule="evenodd">
        <g id="icon-instagram" fill-rule="nonzero">
            <g id="Group-3-Copy" fill="#CB0935">
                <g id="TWITTER-Copy">
                    <circle id="Oval-Copy" cx="15" cy="15" r="15"></circle>
                </g>
            </g>
            <g id="Group-8" transform="translate(6.000000, 6.000000)" fill="#FFFFFF">
                <path d="M5.28956757,8.77407568 C5.28956757,10.6665081 6.87308108,12.2023459 8.82778378,12.2023459 C10.7815135,12.2023459 12.366973,10.6665081 12.366973,8.77407568 C12.366973,6.87921081 10.7815135,5.34337297 8.82778378,5.34337297 C6.87308108,5.34337297 5.28956757,6.87921081 5.28956757,8.77407568 Z M15.6288649,7.45180541 L14.0784324,7.45180541 C14.2258378,7.93196757 14.3056216,8.43888649 14.3056216,8.96526486 C14.3056216,11.895373 11.8522703,14.2718595 8.82778378,14.2718595 C5.80232432,14.2718595 3.34897297,11.895373 3.34897297,8.96526486 C3.34897297,8.43888649 3.42972973,7.93196757 3.57616216,7.45180541 L1.95810811,7.45180541 L1.95810811,14.8969946 C1.95810811,15.2822919 2.27335135,15.5955892 2.65816216,15.5955892 L14.9297838,15.5955892 C15.3145946,15.5955892 15.6288649,15.2822919 15.6288649,14.8969946 M12.8364324,1.95791351 C12.4005405,1.95791351 12.042973,2.31450811 12.042973,2.75283243 L12.042973,4.65012973 C12.042973,5.08699459 12.4005405,5.44358919 12.8364324,5.44358919 L14.8281081,5.44358919 C15.264973,5.44358919 15.6215676,5.08699459 15.6215676,4.65012973 L15.6215676,2.75283243 C15.6215676,2.31450811 15.264973,1.95791351 14.8281081,1.95791351 L12.8364324,1.95791351 Z M15.3603243,0.000291891892 C16.6037838,0.000291891892 17.6215135,1.01802162 17.6215135,2.26245405 L17.6215135,15.3606162 C17.6215135,16.6045622 16.6037838,17.6213189 15.3603243,17.6213189 L2.26313514,17.6213189 C1.01724324,17.6213189 0,16.6045622 0,15.3606162 L0,2.26245405 C0,1.01802162 1.01724324,0.000291891892 2.26313514,0.000291891892 L15.3603243,0.000291891892 Z" id="Page-1"></path>
            </g>
        </g>
    </g>
</svg>