<?xml version="1.0" encoding="UTF-8"?>
<svg width="30px" height="30px" viewBox="0 0 30 30" version="1.1" xmlns="http://www.w3.org/2000/svg" xmlns:xlink="http://www.w3.org/1999/xlink">
    <!-- Generator: Sketch 58 (84663) - https://sketch.com -->
    <title>icon-twitter</title>
    <desc>Created with Sketch.</desc>
    <defs>
        <polygon id="path-1" points="0 12.7421981 0 0 15.6792899 0 15.6792899 12.7421981"></polygon>
    </defs>
    <g id="Page-1" stroke="none" stroke-width="1" fill="none" fill-rule="evenodd">
        <g id="icon-twitter">
            <circle id="Oval-Copy" fill="#CB0935" fill-rule="nonzero" cx="15" cy="15" r="15"></circle>
            <g id="Page-1" transform="translate(7.142857, 8.571429)">
                <g id="Fill-1-Clipped">
                    <mask id="mask-2" fill="white">
                        <use xlink:href="#path-1"></use>
                    </mask>
                    <g id="path-1"></g>
                    <path d="M15.6792899,1.50837643 C15.1023921,1.76422106 14.4824807,1.93719291 13.8317143,2.01490407 C14.4959009,1.61682795 15.0059844,0.986363921 15.2461147,0.235232534 C14.6245975,0.603887383 13.9361512,0.871546403 13.2034296,1.01584254 C12.6166674,0.390654849 11.7805985,-2.29405631e-05 10.855463,-2.29405631e-05 C9.07883107,-2.29405631e-05 7.63856517,1.44030031 7.63856517,3.21670282 C7.63856517,3.46887696 7.66701147,3.71434098 7.72183942,3.94976851 C5.04840355,3.81562357 2.67812722,2.53496663 1.09155787,0.588803962 C0.814607925,1.06390302 0.656031283,1.61648384 0.656031283,2.20599896 C0.656031283,3.322 1.22392492,4.30660897 2.08706361,4.88350678 C1.55977477,4.86681752 1.06374244,4.72206257 0.630051095,4.4811293 C0.629821689,4.49454953 0.629764338,4.50802711 0.629764338,4.52156204 C0.629764338,6.0801439 1.73859645,7.38030031 3.21017623,7.67583212 C2.94022315,7.74929927 2.65604692,7.78858498 2.36269447,7.78858498 C2.15536913,7.78858498 1.95389364,7.76845464 1.75746507,7.73094682 C2.16683942,9.00890824 3.35475912,9.93897602 4.76239208,9.9649562 C3.66147445,10.8276934 2.27448801,11.3419062 0.767350365,11.3419062 C0.507720542,11.3419062 0.251646507,11.326708 -1.14702815e-05,11.297 C1.42362252,12.2096903 3.11445673,12.7421981 4.93106257,12.7421981 C10.8479499,12.7421981 14.083487,7.84060271 14.083487,3.58971637 C14.083487,3.45023775 14.0803326,3.31150469 14.074196,3.17357456 C14.7026528,2.72003962 15.2480073,2.15346507 15.6792899,1.50837643" id="Fill-1" fill="#FFFFFF" fill-rule="nonzero" mask="url(#mask-2)"></path>
                </g>
            </g>
        </g>
    </g>
</svg>