<?xml version="1.0" encoding="UTF-8"?>
<svg width="27px" height="18px" viewBox="0 0 27 18" version="1.1" xmlns="http://www.w3.org/2000/svg" xmlns:xlink="http://www.w3.org/1999/xlink">
    <!-- Generator: Sketch 52.4 (67378) - http://www.bohemiancoding.com/sketch -->
    <title>Page 1</title>
    <desc>Created with Sketch.</desc>
    <g id="Symbols" stroke="none" stroke-width="1" fill="none" fill-rule="evenodd">
        <g id="DESKTOP-NAV" transform="translate(-1123.000000, -36.000000)" fill="#FFFFFF">
            <g id="Page-1" transform="translate(1123.000000, 36.000000)">
                <path d="M26.5970149,17.264 L17.6090582,8.892 L15.0410705,10.364 C14.0322182,11.008 12.6565106,11.008 11.5559444,10.364 L9.17138446,8.8 L0,17.264 C0.275141534,17.724 0.825424601,18 1.37570767,18 L25.2213073,18 C25.7715903,18 26.3218734,17.724 26.5970149,17.264" id="Fill-1"></path>
                <polygon id="Fill-3" points="0 3.2 0 15.6 8.05970149 8.17810219"></polygon>
                <path d="M0,1.55428571 L12.5816327,9.32571429 C13.1326531,9.69142857 13.9591837,9.69142857 14.5102041,9.32571429 L27,2.01142857 L27,1.46285714 C27,0.548571429 26.2653061,0 25.4387755,0 L1.56122449,0 C0.826530612,0 0,0.548571429 0,1.46285714 L0,1.55428571 Z" id="Fill-5"></path>
                <polygon id="Fill-7" points="27 15.6 27 3.6 18.9402985 8.23636364"></polygon>
            </g>
        </g>
    </g>
</svg>