<?xml version="1.0" encoding="UTF-8"?>
<svg width="40px" height="47px" viewBox="0 0 40 47" version="1.1" xmlns="http://www.w3.org/2000/svg" xmlns:xlink="http://www.w3.org/1999/xlink">
    <!-- Generator: Sketch 63.1 (92452) - https://sketch.com -->
    <title>Page 1</title>
    <desc>Created with Sketch.</desc>
    <g id="Page-1" stroke="none" stroke-width="1" fill="none" fill-rule="evenodd">
        <g id="20200221&gt;Mobile&gt;CordinerWealthConcept2" transform="translate(-140.000000, -5003.000000)" fill="#B26D44">
            <g id="FOOTER" transform="translate(0.000000, 4777.000000)">
                <g id="Page-1" transform="translate(140.000000, 226.000000)">
                    <path d="M20.3659237,2.12403608 C25.848793,2.12403608 30.8676515,4.61147626 34.2335986,8.65050766 C34.8854557,9.43237797 35.4749805,10.2724965 35.9939356,11.1644008 C36.6722882,12.3293652 37.2299675,13.5814434 37.6473565,14.9065042 C37.753848,15.2441026 37.8515926,15.5851476 37.9395712,15.9315349 C38.083598,16.4994551 38.6543552,16.8410171 39.2140725,16.695138 C39.7737899,16.5490867 40.1107582,15.9698788 39.9667314,15.4017002 C39.2721588,12.6646371 38.0525168,10.1771969 36.4343383,8.03717805 L37.3951397,1.21222743 C37.4769191,0.631813234 37.0794866,0.0937927105 36.5072009,0.0108148494 C35.9349152,-0.0721630116 35.4048354,0.331352381 35.3231409,0.912025077 L34.6148959,5.94179318 C30.9192837,2.23157125 25.8505764,0.000302597058 20.3659237,0.000302597058 C15.7129069,0.000302597058 11.4225048,1.60247326 8,4.29085256 L8.34707402,6.75502792 C11.5501417,3.87536009 15.7598685,2.12403608 20.3659237,2.12403608" id="Fill-1"></path>
                    <path d="M20.3031079,38.4866735 C18.1641855,38.4866735 16.0807233,38.1221524 14.0974471,37.4023913 L20.3031079,14.6595407 L26.5090243,37.4023913 C24.5254074,38.1221524 22.4422008,38.4866735 20.3031079,38.4866735 M2.09998956,20.2926315 C2.09998956,16.9216835 3.02304784,13.7627556 4.62815548,11.0530717 L7.84424902,33.5544408 C4.21037257,30.1384493 2.09998956,25.3449237 2.09998956,20.2926315 M39.2113628,24.087364 C38.6498605,23.9431223 38.0775388,24.2807365 37.9327971,24.8419509 C37.0729515,28.1817345 35.2675568,31.2044246 32.7616261,33.5571656 L35.4449272,14.7841131 C35.019051,13.6070188 34.463001,12.5004276 33.7962011,11.4788147 L29.6078081,40.7820244 L21.3160441,10.3952988 C21.1914078,9.93881711 20.7766066,9.62189402 20.3031079,9.62189402 C19.8295241,9.62189402 19.4147229,9.93881711 19.2900866,10.3952988 L10.9985782,40.7822798 L6.3944469,8.56979791 C6.39495805,8.56954247 6.39495805,8.56903157 6.39538401,8.56877613 L6.01278551,5.89255562 C6.01252993,5.89255562 6.01210397,5.89306651 6.0118484,5.8935774 L5.29819272,0.901144658 C5.21615256,0.32732824 4.684212,-0.0709117642 4.11027165,0.0105754464 C3.53641649,0.0928289944 3.13746107,0.62424141 3.21950123,1.19788753 L4.1868595,7.96626463 C1.5625115,11.3857473 0,15.6601219 0,20.2926315 C0,26.7497053 3.08992378,32.8282936 8.28656731,36.6489964 L9.63720562,46.0987881 C9.70757444,46.5914579 10.1144527,46.9668781 10.6115497,46.997787 C10.6336145,46.9993197 10.6554237,47 10.6772329,47 C11.1474943,47 11.5642549,46.6852917 11.6894023,46.2265962 L13.5436122,39.4319933 C15.7080071,40.1970535 17.9763366,40.5855865 20.3031079,40.5855865 C22.6300497,40.5855865 24.8981236,40.196798 27.0627741,39.4319933 L28.9167284,46.2263407 C29.0477541,46.7063234 29.4995287,47.0300584 29.9949218,46.997787 C30.4919335,46.9666226 30.8988118,46.5914579 30.9691807,46.0986178 L32.3196486,36.6500182 C36.0929848,33.8762174 38.8035474,29.8812154 39.9665923,25.3649336 C40.1111636,24.8038043 39.7731206,24.2316909 39.2113628,24.087364" id="Fill-3"></path>
                </g>
            </g>
        </g>
    </g>
</svg>