<?xml version="1.0" encoding="UTF-8"?>
<svg width="29px" height="17px" viewBox="0 0 29 17" version="1.1" xmlns="http://www.w3.org/2000/svg" xmlns:xlink="http://www.w3.org/1999/xlink">
    <!-- Generator: Sketch 52.2 (67145) - http://www.bohemiancoding.com/sketch -->
    <title>Page 1 Copy</title>
    <desc>Created with Sketch.</desc>
    <defs>
        <polygon id="path-1" points="16.0946398 0.000181058201 0 0.000181058201 0 28.2520501 16.0946398 28.2520501 16.0946398 0.000181058201"></polygon>
    </defs>
    <g id="Symbols" stroke="none" stroke-width="1" fill="none" fill-rule="evenodd">
        <g id="MOBILE-FOOTER" transform="translate(-173.000000, -729.000000)">
            <g id="Page-1-Copy" transform="translate(187.285714, 737.500000) rotate(90.000000) translate(-187.285714, -737.500000) translate(179.000000, 723.000000)">
                <mask id="mask-2" fill="white">
                    <use xlink:href="#path-1"></use>
                </mask>
                <g id="Clip-2"></g>
                <path d="M15.5296814,0.53090791 C14.8171641,-0.176124365 13.6609782,-0.177029656 12.9480045,0.529549974 C12.947548,0.530002619 12.9470916,0.530455265 12.9461787,0.53090791 L0.535323676,12.8292862 C-0.178106496,13.5358658 -0.178562945,14.6824169 0.533954328,15.3899018 C0.534410778,15.3903545 0.534867227,15.3908071 0.535323676,15.3912598 L12.9461787,27.6896381 C13.6413509,28.4143235 14.7975368,28.4423875 15.5273992,27.7530084 C16.2581744,27.0636293 16.2864743,25.9175309 15.5913021,25.1928455 C15.569849,25.1711185 15.5479394,25.1489389 15.5251169,25.1276645 L4.40601329,14.110273 L15.5251169,3.09288146 C16.2399164,2.38765976 16.2426551,1.2411087 15.5315072,0.532265847 C15.5305943,0.531813201 15.5301379,0.531360556 15.5296814,0.53090791" id="Fill-1" fill="#FFFFFF" mask="url(#mask-2)"></path>
            </g>
        </g>
    </g>
</svg>